<svg xmlns="http://www.w3.org/2000/svg" width="489.394" height="562.688" viewBox="0 0 489.394 562.688">
  <g id="contactform_illustration" data-name="contactform illustration" transform="translate(-1090 -3725.5)">
    <ellipse id="Ellipse_240" data-name="Ellipse 240" cx="25.94" cy="25.94" rx="25.94" ry="25.94" transform="translate(1360.637 3869.965)" fill="#2f2e41"/>
    <path id="Path_229" data-name="Path 229" d="M788.513,308.717A25.939,25.939,0,0,1,751.87,345.36a25.939,25.939,0,1,0,36.643-36.643Z" transform="translate(615.52 3568.002)" opacity="0.1"/>
    <ellipse id="Ellipse_241" data-name="Ellipse 241" cx="18.158" cy="18.158" rx="18.158" ry="18.158" transform="translate(1395.223 3850.078)" fill="#2f2e41"/>
    <path id="Path_230" data-name="Path 230" d="M802.218,314.267a18.145,18.145,0,0,1-18.092-16.861c-.03.43-.065.859-.065,1.3a18.158,18.158,0,1,0,36.315,0c0-.438-.035-.867-.065-1.3A18.145,18.145,0,0,1,802.218,314.267Z" transform="translate(611.163 3569.532)" opacity="0.1"/>
    <path id="Path_231" data-name="Path 231" d="M782.654,291.928a18.094,18.094,0,0,1,22.7-17.561,18.15,18.15,0,1,0-11.685,34.258,18.16,18.16,0,0,1-11.018-16.7Z" transform="translate(611.705 3572.849)" fill="#2f2e41"/>
    <path id="Path_232" data-name="Path 232" d="M801.453,309.66a18.094,18.094,0,0,1,16.305-23.621,18.15,18.15,0,1,0-.741,36.188,18.16,18.16,0,0,1-15.565-12.567Z" transform="translate(609.295 3571.083)" fill="#2f2e41"/>
    <path id="Path_233" data-name="Path 233" d="M807.488,310.533a18.094,18.094,0,0,1,2.539-28.59,18.15,18.15,0,1,0,17.2,31.849,18.16,18.16,0,0,1-19.737-3.259Z" transform="translate(609.105 3571.625)" fill="#2f2e41"/>
    <path id="Path_234" data-name="Path 234" d="M792.74,368.4s-27.669,19.022-25.94,10.376c.968-4.859-2.706-15.192-6.113-23.3-2.646-6.312-5.127-11.284-5.127-11.284l30.263-7.782a48.034,48.034,0,0,0,.112,13.878,44.433,44.433,0,0,0,6.8,18.115Z" transform="translate(615.02 3564.254)" fill="#ad6442"/>
    <path id="Path_235" data-name="Path 235" d="M566.729,351.959,565,366.658l24.21-2.594,4.323-15.564Z" transform="translate(799.528 3661.971)" fill="#ad6442"/>
    <path id="Path_236" data-name="Path 236" d="M714.309,428.147l-5.188,6.053s-14.7.865-6.917-18.158,26.8-51.879,26.8-51.879,12.105-29.4,16.428-18.158-8.646,25.94-8.646,25.94-16.428,29.4-14.7,42.368Z" transform="translate(622.549 3563.302)" fill="#ad6442"/>
    <path id="Path_238" data-name="Path 238" d="M812.56,673.782s38.909,41.5,43.233,53.609-6.917,31.128-11.241,31.992-5.188,6.053,0,6.917,22.481-6.917,27.669-15.564,8.647-14.7,11.24-16.428,4.323-9.511,0-13.834-39.774-37.18-44.1-57.067Z" transform="translate(607.306 3519.996)" fill="#ad6442"/>
    <path id="Path_239" data-name="Path 239" d="M881.918,725.384s-1.729,17.293-17.293,9.511c0,0-6.917-7.782-6.917,1.729s-3.459,25.94-14.7,31.992,7.782,8.646,10.376,7.782,19.887-6.917,22.481-12.105S887.971,747,891.429,742.677,890.565,723.655,881.918,725.384Z" transform="translate(603.661 3511.627)" fill="#2f2e41"/>
    <path id="Path_240" data-name="Path 240" d="M790.552,512.406s12.105,5.188,7.782,40.639c0,0-3.459,11.241,6.053,23.346s35.451,51.015,35.451,67.443c0,0-25.075,17.293-34.586,16.428s-46.691-64.849-46.691-64.849Z" transform="translate(614.614 3540.433)" fill="#2f2e41"/>
    <path id="Path_241" data-name="Path 241" d="M790.552,512.406s12.105,5.188,7.782,40.639c0,0-3.459,11.241,6.053,23.346s35.451,51.015,35.451,67.443c0,0-25.075,17.293-34.586,16.428s-46.691-64.849-46.691-64.849Z" transform="translate(614.614 3540.433)" opacity="0.1"/>
    <path id="Path_242" data-name="Path 242" d="M681.648,665.406s1.729,62.255-8.647,69.172c0,0-13.834,19.887-22.481,19.887s-7.782,6.917-3.459,7.782,5.188,3.459,22.481-3.459,25.94-8.646,28.534-8.646,5.188-3.459,0-13.835,14.7-63.12,14.7-63.12Z" transform="translate(630.136 3519.725)" fill="#ad6442"/>
    <path id="Path_243" data-name="Path 243" d="M699.043,739.931s-8.646,4.323-14.7,5.188-9.457-5.257-8.187-7.384-3.918-.4-7.377,7.384c0,0-14.7,17.293-23.346,18.158s-8.714,12.571-4.323,12.97c4.756.432,12.97,3.459,23.346,0s19.887-12.97,24.21-12.97,19.022-6.917,14.7-10.376S699.043,739.931,699.043,739.931Z" transform="translate(630.899 3510.05)" fill="#2f2e41"/>
    <path id="Path_244" data-name="Path 244" d="M763.3,388.013s-36.315,27.145-41.5,29.739-11.241,22.481-11.241,22.481,31.128-8.647,36.315-14.7S763.3,388.013,763.3,388.013Z" transform="translate(621.111 3557.269)" fill="#ad6442"/>
    <ellipse id="Ellipse_242" data-name="Ellipse 242" cx="23.346" cy="23.346" rx="23.346" ry="23.346" transform="translate(1358.043 3876.882)" fill="#ad6442"/>
    <path id="Path_246" data-name="Path 246" d="M736.357,479.623s-15.564,40.639-16.428,44.1S689.665,587.7,684.477,612.78s-6.917,29.4-6.917,29.4,25.94,11.241,44.962,17.293,27.669,6.053,27.669,6.053-4.323-10.376,2.594-28.534,20.752-76.09,20.752-76.09,11.062-34.155,8.646-58.8a92.045,92.045,0,0,1-.208-19.12,7.478,7.478,0,0,0-7.921-8.348C761.227,475.515,740.477,477.268,736.357,479.623Z" transform="translate(625.577 3545.548)" fill="#2f2e41"/>
    <path id="Path_247" data-name="Path 247" d="M790.455,367.318s-11.241-1.729-16.428.865-13.834,1.729-12.97,3.459,5.188,11.241,1.729,14.7-6.917,19.022-13.834,23.346-17.293,19.022-3.459,31.992c0,0,4.323,16.428,0,19.887s13.834-3.459,13.834-3.459a37.662,37.662,0,0,1,11.241,4.323c6.053,3.459,19.887,2.594,19.887,2.594s6.053-26.8,9.511-32.857S811.206,378.558,790.455,367.318Z" transform="translate(617.306 3560.147)" fill="#843399"/>
    <path id="Path_249" data-name="Path 249" d="M782.419,315.1a19.022,19.022,0,1,0-25.163,25.163A19.022,19.022,0,1,0,782.419,315.1Z" transform="translate(616.306 3568.653)" fill="#2f2e41"/>
    <ellipse id="Ellipse_243" data-name="Ellipse 243" cx="2.162" cy="5.62" rx="2.162" ry="5.62" transform="translate(1372.742 3902.822)" fill="#ad6442"/>
    <ellipse id="Ellipse_244" data-name="Ellipse 244" cx="19.022" cy="19.022" rx="19.022" ry="19.022" transform="translate(1147.5 3733.782)" fill="#843399"/>
    <rect id="Rectangle_700" data-name="Rectangle 700" width="27.669" height="27.669" transform="translate(1090.432 3921.412)" fill="#843399"/>
    <rect id="Rectangle_701" data-name="Rectangle 701" width="197.141" height="114.999" rx="16.004" transform="translate(1137.124 3827.165)" fill="#f2f2f2"/>
    <ellipse id="Ellipse_245" data-name="Ellipse 245" cx="77.819" cy="77.819" rx="77.819" ry="77.819" transform="translate(1090 3948.649)" fill="#f2f2f2"/>
    <ellipse id="Ellipse_246" data-name="Ellipse 246" cx="77.819" cy="77.819" rx="77.819" ry="77.819" transform="translate(1102.97 3940.867)" fill="none" stroke="#3f3d56" stroke-miterlimit="10" stroke-width="1"/>
    <rect id="Rectangle_702" data-name="Rectangle 702" width="197.141" height="114.999" rx="14.693" transform="translate(1117.669 3807.71)" fill="none" stroke="#3f3d56" stroke-miterlimit="10" stroke-width="1"/>
    <ellipse id="Ellipse_247" data-name="Ellipse 247" cx="19.022" cy="19.022" rx="19.022" ry="19.022" transform="translate(1155.281 3726)" fill="none" stroke="#3f3d56" stroke-miterlimit="10" stroke-width="1"/>
    <rect id="Rectangle_703" data-name="Rectangle 703" width="27.669" height="27.669" transform="translate(1094.756 3916.224)" fill="none" stroke="#3f3d56" stroke-miterlimit="10" stroke-width="1"/>
    <rect id="Rectangle_704" data-name="Rectangle 704" width="28" height="27" transform="translate(1255.155 3767)" fill="#843399"/>
    <rect id="Rectangle_705" data-name="Rectangle 705" width="27" height="28" transform="translate(1246.155 3762)" fill="none" stroke="#3f3d56" stroke-miterlimit="10" stroke-width="1"/>
    <line id="Line_10" data-name="Line 10" x2="357.102" transform="translate(1222.292 4287.593)" fill="none" stroke="#3f3d56" stroke-miterlimit="10" stroke-width="1"/>
    <path id="Path_245" data-name="Path 245" d="M763.3,388.013s-36.315,27.145-41.5,29.739-11.241,22.481-11.241,22.481,31.128-8.647,36.315-14.7S763.3,388.013,763.3,388.013Z" transform="translate(623.696 3556.269)" fill="#3b334c" opacity="0.1"/>
    <path id="Path_237" data-name="Path 237" d="M714.309,428.147l-5.188,6.053s-14.7.865-6.917-18.158,26.8-51.879,26.8-51.879,12.105-29.4,16.428-18.158-8.646,25.94-8.646,25.94-16.428,29.4-14.7,42.368Z" transform="translate(622.549 3563.302)" fill="#ad6442" opacity="0.1"/>
    <path id="Path_248" data-name="Path 248" d="M783.3,383.388s-19.887,3.459-6.917,23.346,24.21,46.691,24.21,46.691,2.594,4.323-6.053,7.782-42.368,19.887-42.368,19.887-22.481,3.459-21.616,5.188,9.511,0,9.511,0-6.053,16.428,4.323,16.428,15.564-10.376,15.564-10.376,56.2-19.887,59.661-22.481c1.211-.908,2-2.875,2.509-5.049a25.629,25.629,0,0,0-.806-14.083C815.481,433.52,796.35,380.488,783.3,383.388Z" transform="translate(618.408 3557.911)" fill="#ad6442"/>
  </g>
</svg>
