<svg xmlns="http://www.w3.org/2000/svg" viewBox="0 0 320 98.33"><title>Asset 2</title><g id="Layer_2" data-name="Layer 2" opacity=".1"><g id="Layer_1-2" data-name="Layer 1"><path d="M176.66,10a75.56,75.56,0,0,1-13,2.56l-3.63.07-3.63-.07a76.57,76.57,0,0,1-13-2.56S79.77-9.41,0,5.86l4.45,19.7s7.63-1,9.86,6.67c0,0,6.67,30.83,13,44.5,0,0,5.71,13.33,24.48,18.74,0,0,34.94,9.21,62.61-5.41,0,0,12.39-3.17,27.65-36.22l7.61-17.48s1.16-5.78,9.27-6.59c.1,0,.52,0,1,0s1,0,1.07,0c8.09.81,9.24,6.59,9.24,6.59L178,53.84c15.25,33.05,27.64,36.22,27.64,36.22,27.66,14.62,62.62,5.41,62.62,5.41,18.75-5.41,24.47-18.74,24.47-18.74,6.36-13.67,13-44.5,13-44.5,2.23-7.63,9.86-6.67,9.86-6.67L320,5.86C240.23-9.41,176.66,10,176.66,10Zm-42.52,23.8c-1.56,13.67-5.6,29.4-14.32,40.39-9.48,12-24.08,15-38.7,15.68-12.77.6-27.94-.16-38.62-8.1C31.42,73.54,21.31,29.69,32,17.65c4.81-5.4,11.33-7.14,18.25-8C63,8.12,77.9,7.17,90.65,8.35,131.58,12.21,135.38,22.74,134.14,33.79Zm143.39,48c-10.71,7.94-25.84,8.7-38.61,8.1-14.65-.67-29.24-3.72-38.72-15.68-8.74-11-12.73-26.72-14.31-40.39-1.25-11,2.54-21.58,43.47-25.44,12.77-1.18,27.71-.23,40.44,1.31,6.92.85,13.43,2.59,18.27,8C298.73,29.69,288.6,73.54,277.53,81.76Z"/></g></g></svg>