<svg xmlns="http://www.w3.org/2000/svg" width="474.97" height="474.97" viewBox="0 0 474.97 474.97"><defs><style>.a{fill:#e4df4c;}.b{opacity:0.2;}.c{fill:#ad6442;}.d{fill:#2f2e41;}.e{fill:#eb1313;}</style></defs><g transform="translate(-1283.515 537.3)"><g transform="translate(1572 98)"><path class="a" d="M736.97,349.485A237.31,237.31,0,0,1,626.251,550.342q-9.317,5.9-19.209,10.926c-1.49.766-2.986,1.5-4.5,2.227-1.244.6-2.5,1.194-3.759,1.778a235.25,235.25,0,0,1-40.6,14.383c-.906.232-1.82.457-2.733.675-.682.169-1.37.33-2.059.485a1.752,1.752,0,0,1-.26.063c-1.412.33-2.824.646-4.251.935-.8.169-1.6.337-2.4.5-.485.105-.977.2-1.461.288-.611.119-1.216.232-1.827.351-.337.07-.674.126-1.019.183-.773.141-1.546.281-2.312.415-1.307.225-2.628.443-3.942.639-.956.148-1.9.288-2.86.422-1.124.162-2.248.309-3.38.45-.309.049-.618.084-.927.119l-1.2.148c-1.223.148-2.459.281-3.689.408q-1.2.127-2.4.232c-1.033.1-2.066.183-3.106.267-1.265.1-2.522.19-3.794.267-.815.049-1.63.1-2.452.141-2.094.112-4.188.19-6.3.246-1.047.028-2.1.049-3.155.063h-.021c-1.047.014-2.1.021-3.155.021A237.363,237.363,0,0,1,262,349.485C262,218.327,368.327,112,499.485,112S736.97,218.327,736.97,349.485Z" transform="translate(-550.485 -747.3)"/><path class="b" d="M771.346,316.765c-12.2,8.93-22.856,20.917-32.173,35.04C712.657,391.987,697,449.489,687.756,503.218c-2.361,13.729-4.307,27.212-5.9,40.091-5.495,44.3-6.921,81.539-7.293,97.446-1.412.33-2.824.646-4.251.935.246-12.176,1.124-38.532,4.223-71.379q.6-6.366,1.321-13.041.8-7.5,1.771-15.345c1.335-10.785,2.909-21.964,4.771-33.332q.443-2.687.892-5.34c11.713-68.709,29.686-120.885,53.631-155.9q14.5-21.226,31.927-34Z" transform="translate(-671.909 -807.178)"/><path class="b" d="M791.479,583.108c-18.275,13.392-28.512,42.944-34.232,71.73a391.211,391.211,0,0,0-6.071,45.516c-1.49.766-2.986,1.5-4.5,2.227A383.542,383.542,0,0,1,753.6,650.8c6.015-28.512,16.638-57.376,35.377-71.1Z" transform="translate(-694.62 -886.385)"/><circle class="b" cx="21.141" cy="21.141" r="21.141" transform="translate(101.924 -532.792)"/><circle class="b" cx="21.141" cy="21.141" r="21.141" transform="translate(95.117 -350.808)"/><path class="b" d="M716.339,320.153c4.483,25.292-5.413,48.194-5.413,48.194s-17.165-18.105-21.648-43.4,5.413-48.194,5.413-48.194S711.856,294.861,716.339,320.153Z" transform="translate(-677.203 -796.295)"/><path class="b" d="M807.811,411.031c-24.124,8.821-48.366,3.16-48.366,3.16s14.872-19.963,39-28.785,48.366-3.16,48.366-3.16S831.936,402.21,807.811,411.031Z" transform="translate(-698.416 -827.134)"/><path class="b" d="M819.746,644.219c-16.909,6.183-33.925,2.15-33.925,2.15s10.4-14.058,27.309-20.241,33.925-2.15,33.925-2.15S836.656,638.036,819.746,644.219Z" transform="translate(-706.26 -899.168)"/><path class="c" d="M598.557,460.116s-35.387,102.945,6.434,131.9-67.558,48.256-96.511,28.953S457.008,569.5,457.008,569.5,531,495.5,514.914,453.682Z" transform="translate(-608.477 -848.91)"/><path class="d" d="M617.607,652.313l-6.12,52.352a235.25,235.25,0,0,1-40.6,14.383c-.906.232-1.82.457-2.733.675-.682.169-1.37.33-2.059.485a1.746,1.746,0,0,1-.26.063c-1.412.33-2.824.646-4.251.935-.8.169-1.6.337-2.4.5-.485.105-.977.2-1.461.288-.611.119-1.216.232-1.827.351-.337.07-.675.126-1.019.183-.773.141-1.546.281-2.312.415-1.307.225-2.628.443-3.942.639-.956.148-1.9.288-2.86.422-1.124.162-2.248.309-3.38.45-.309.049-.618.084-.928.119l-1.2.148c-1.223.148-2.459.281-3.689.408q-1.2.127-2.4.232c-1.033.1-2.066.183-3.106.267-1.265.1-2.522.19-3.794.267-.815.049-1.63.1-2.452.141-2.094.112-4.188.19-6.3.246-1.047.028-2.1.049-3.155.063h-.021c-1.047.014-2.1.021-3.155.021A237.7,237.7,0,0,1,304.71,604.521a313.635,313.635,0,0,1,33.016-19.765c3.633-1.834,8.558-2.958,14.186-3.534,12.71-1.321,29.18.155,43.464,2.86,13.027,2.445,24.254,5.923,29.208,9.2,12.872,8.523,64.346,36.508,64.346,36.508s45.017,6.436,63.2-6.97c.007,0,.007-.007.014-.007,4.286-3.176,10.216-3.2,16.757-1.377q2.076.58,4.23,1.384a85.475,85.475,0,0,1,11.579,5.516l.246.141c1.314.738,2.621,1.511,3.914,2.3A216.614,216.614,0,0,1,617.607,652.313Z" transform="translate(-563.186 -886.692)"/><path class="d" d="M377.764,669.323c-2.08-38.63-4.441-70.276-5.874-88.1,12.71-1.321,29.18.155,43.464,2.86,11.628,23.3,37.836,77.077,61.957,135.914a236.774,236.774,0,0,1-99.547-50.673Z" transform="translate(-583.164 -886.692)"/><path class="d" d="M701.96,648.27l.857.443C702.733,649.626,702.529,650.188,701.96,648.27Z" transform="translate(-681.321 -906.777)"/><path class="d" d="M703.454,648c.007.1.021.2.028.3l-.3-.155c.007-.091.014-.19.028-.288C703.278,646.631,703.194,645.176,703.454,648Z" transform="translate(-681.684 -906.213)"/><path class="d" d="M751.613,710.072Q742.3,715.974,732.4,721c-1.49.766-2.986,1.5-4.5,2.227-1.244.6-2.5,1.194-3.759,1.778a235.252,235.252,0,0,1-40.6,14.383c10.125-32.693,16.54-64.971,14.094-90.265l3.885,2,18.725,9.647a57.551,57.551,0,0,1,14.572,10.68,53.351,53.351,0,0,1,3.647,4.033,57.8,57.8,0,0,1,13.111,33.979C751.592,709.665,751.606,709.868,751.613,710.072Z" transform="translate(-675.846 -907.03)"/><circle class="d" cx="102.607" cy="102.607" r="102.607" transform="translate(-144.375 -564.977)"/><circle class="c" cx="86.86" cy="86.86" r="86.86" transform="translate(-138.6 -523.91)"/><ellipse class="d" cx="44.453" cy="69.855" rx="44.453" ry="69.855" transform="translate(-111.882 -481.934) rotate(-71.208)"/><circle class="d" cx="41.103" cy="41.103" r="41.103" transform="translate(-27.319 -588.081)"/></g><g transform="translate(1436 -358.33)"><path class="e" d="M93.423,5.289a39.959,39.959,0,0,1-6.875,1.354l-1.92.037-1.92-.037a40.492,40.492,0,0,1-6.875-1.354S42.185-4.975,0,3.1L2.353,13.518a4.824,4.824,0,0,1,5.214,3.527s3.527,16.3,6.875,23.533c0,0,3.02,7.049,12.946,9.91,0,0,18.477,4.871,33.11-2.861,0,0,6.552-1.676,14.622-19.154l4.024-9.244s.613-3.057,4.9-3.485h1.095c4.278.428,4.886,3.485,4.886,3.485l4.1,9.244c8.065,17.478,14.617,19.154,14.617,19.154,14.627,7.731,33.115,2.861,33.115,2.861,9.916-2.861,12.94-9.91,12.94-9.91,3.363-7.229,6.875-23.533,6.875-23.533a4.851,4.851,0,0,1,5.214-3.527L169.225,3.1C127.041-4.975,93.423,5.289,93.423,5.289ZM70.937,17.875c-.825,7.229-2.961,15.548-7.573,21.359C58.351,45.581,50.63,47.167,42.9,47.527c-6.753.317-14.775-.085-20.423-4.284C16.616,38.891,11.269,15.7,16.923,9.335c2.544-2.856,5.992-3.776,9.651-4.231a106.6,106.6,0,0,1,21.365-.687c21.645,2.041,23.655,7.61,23,13.453Zm75.829,25.384c-5.664,4.2-13.665,4.6-20.418,4.284-7.747-.354-15.463-1.967-20.476-8.292C101.25,33.434,99.14,25.12,98.3,17.891c-.661-5.817,1.343-11.412,22.988-13.453a106.372,106.372,0,0,1,21.386.693c3.66.45,7.1,1.37,9.662,4.231,5.637,6.341.28,29.53-5.574,33.877Z" transform="translate(0 -0.002)"/></g></g></svg>